PathFileType	4	(X/Y/Z)	C:/Users/opensim2020/Desktop/walking_exp_matlab/subject06_walking17_straight_03.trc																																																																																																																																					
DataRate	CameraRate	NumFrames	NumMarkers	Units	OrigDataRate	OrigDataStartFrame	OrigNumFrames																																																																																																																																	
100	100	6	45	mm	100	3355	295																																																																																																																																	
Frame#	Time	LFHD			RFHD			LBHD			RBHD			C7			T10			CLAV			STRN			RBAK			LSHO			LUPA			LELB			LFRM			LWRA			LWRB			LFIN			RSHO			RUPA			RELB			RFRM			RWRA			RWRB			RFIN			LASI			RASI			LPSI			RPSI			LTHI			LKNE			LTIB			LANK			LHEE			LTOE			RTHI			RKNE			RTIB			RANK			RHEE			RTOE			*39			*40			*41			*42			*43			*44		
		X1	Y1	Z1	X2	Y2	Z2	X3	Y3	Z3	X4	Y4	Z4	X5	Y5	Z5	X6	Y6	Z6	X7	Y7	Z7	X8	Y8	Z8	X9	Y9	Z9	X10	Y10	Z10	X11	Y11	Z11	X12	Y12	Z12	X13	Y13	Z13	X14	Y14	Z14	X15	Y15	Z15	X16	Y16	Z16	X17	Y17	Z17	X18	Y18	Z18	X19	Y19	Z19	X20	Y20	Z20	X21	Y21	Z21	X22	Y22	Z22	X23	Y23	Z23	X24	Y24	Z24	X25	Y25	Z25	X26	Y26	Z26	X27	Y27	Z27	X28	Y28	Z28	X29	Y29	Z29	X30	Y30	Z30	X31	Y31	Z31	X32	Y32	Z32	X33	Y33	Z33	X34	Y34	Z34	X35	Y35	Z35	X36	Y36	Z36	X37	Y37	Z37	X38	Y38	Z38	X39	Y39	Z39	X40	Y40	Z40	X41	Y41	Z41	X42	Y42	Z42	X43	Y43	Z43	X44	Y44	Z44	X45	Y45	Z45
																																																																																																																																								
148	1.47	121.09302	1673.203	-1022.1864	108.80957	1655.42456	-891.51752	-7.77027	1613.55652	-1039.0387	-18.85496	1600.46936	-910.83704	-9.34966	1458.38721	-982.25696	-50.30138	1130.32666	-974.09827	99.31562	1379.34192	-979.79999	135.21376	1203.09631	-984.13959	-85.26324	1291.17493	-898.65375	46.7845	1410.31055	-1142.51489	42.46871	1207.42419	-1214.30078	39.10426	1095.22998	-1226.75159	72.94189	948.98578	-1251.28235	143.99309	839.66547	-1212.31689	83.28415	829.98669	-1248.21094	133.00595	754.19989	-1252.90356	57.84533	1413.11646	-819.48383	37.7872	1212.88049	-729.98297	58.42538	1092.45081	-718.10602	92.23597	976.73895	-703.98834	170.37163	848.88464	-742.8786	120.68376	842.19043	-698.12872	168.95523	772.88013	-700.13739	129.58545	970.34143	-1082.8761	125.61657	971.90582	-862.16272	-29.44131	995.87054	-1058.86768	-25.74265	999.79724	-889.64093	107.34058	655.25568	-1145.88123	138.28088	495.42029	-1120.09412	35.58588	264.3588	-1120.24121	-12.50849	96.91338	-1087.89233	-49.35827	85.19611	-1037.4303	117.8379	44.2226	-1107.55042	59.8586	636.77533	-820.30774	55.92244	511.50778	-845.62305	-3.88953	250.02058	-856.61084	-21.94202	66.3129	-913.12067	-61.555	42.72499	-958.49719	131.49994	32.1369	-916.6496	13.97912	1704.06067	-971.74963	NaN	NaN	NaN	NaN	NaN	NaN	NaN	NaN	NaN	NaN	NaN	NaN	NaN	NaN	NaN
149	1.48	127.49875	1672.90417	-1022.45093	115.28407	1655.29858	-891.73389	-1.58257	1613.3479	-1039.17883	-12.59223	1600.54712	-910.88049	-3.37419	1458.28284	-981.96063	-44.84667	1130.35254	-973.31323	105.10945	1379.11475	-979.56122	140.68852	1202.823	-983.70935	-79.36993	1291.30786	-897.85858	52.34612	1409.90918	-1142.27075	46.38071	1206.96155	-1213.63098	41.79195	1095.03223	-1226.22498	74.0546	948.36359	-1251.11975	143.49338	837.98682	-1212.77209	82.52669	829.20966	-1248.33203	131.37213	752.75153	-1253.47681	64.00061	1413.14539	-819.25513	44.70057	1212.97803	-729.56506	65.66586	1092.60925	-717.65839	100.01655	977.03992	-703.49432	178.67679	849.56049	-742.39148	129.33774	842.77905	-697.40747	177.85728	773.64709	-699.52197	135.25862	970.54254	-1082.0481	130.59888	971.64008	-861.26984	-23.93854	995.77991	-1058.26782	-20.56564	999.44342	-889.04144	113.99375	655.74725	-1145.90881	146.27534	496.0285	-1120.17847	50.96507	261.50992	-1120.22302	8.78632	92.52531	-1087.61938	-27.8701	79.97763	-1037.20752	140.91682	43.7963	-1106.75098	63.7339	636.44507	-820.15277	58.88446	511.08963	-845.45251	-2.59218	249.99829	-856.51685	-21.7093	66.31625	-913.3147	-61.46791	42.9209	-958.60474	131.94379	31.93892	-916.85901	20.39535	1703.94336	-972.02191	NaN	NaN	NaN	NaN	NaN	NaN	NaN	NaN	NaN	NaN	NaN	NaN	NaN	NaN	NaN
150	1.49	133.7571	1672.36255	-1022.70276	121.84849	1655.19434	-892.01929	4.72699	1613.16272	-1039.28455	-6.22777	1600.55652	-911.00739	2.70947	1458.19824	-981.66309	-39.46265	1130.21509	-972.57465	110.92278	1378.79382	-979.4007	146.22772	1202.54346	-983.31061	-73.48991	1291.43494	-897.10132	57.91177	1409.47485	-1141.99817	50.48505	1206.74817	-1213.51563	44.62061	1094.77075	-1225.87317	74.74969	947.75159	-1251.17505	143.18135	836.43176	-1213.22961	81.97715	828.4823	-1248.42285	129.86375	751.33521	-1253.91907	70.25706	1413.16785	-819.07458	51.60571	1212.98096	-729.20856	72.80454	1092.74341	-717.22675	107.74574	977.33038	-703.03925	187.0863	850.21936	-741.89795	137.59239	843.17609	-697.12701	186.60016	774.44397	-698.91962	141.01367	970.72144	-1081.23804	135.83955	971.37262	-860.55292	-18.36288	995.72162	-1057.67834	-15.2512	999.04547	-888.45941	120.52254	656.18561	-1146.09961	154.04147	496.56396	-1120.26538	66.55847	258.8298	-1120.26514	30.26808	88.55975	-1087.46021	-6.18721	74.94166	-1037.03992	163.90068	43.47117	-1105.63342	67.76688	636.073	-819.96155	62.26933	510.72141	-845.08691	-1.02988	249.93048	-856.43463	-21.47932	66.39249	-913.40314	-61.42673	43.20117	-958.66461	132.09406	31.78531	-916.80121	26.81563	1703.82605	-972.28528	NaN	NaN	NaN	NaN	NaN	NaN	NaN	NaN	NaN	NaN	NaN	NaN	NaN	NaN	NaN
151	1.5	140.27827	1672.09131	-1022.99219	128.14339	1654.93066	-892.31659	10.95825	1612.97791	-1039.4425	0.03841	1600.57043	-911.1087	8.50146	1458.01514	-981.39777	-34.00451	1130.30847	-971.89008	116.7581	1378.43945	-979.27551	151.71077	1202.19006	-982.91962	-67.59862	1291.50513	-896.41943	63.44495	1409.03491	-1141.81262	54.45774	1206.28101	-1212.97961	47.42273	1094.48462	-1225.54077	75.92644	947.17944	-1250.98657	143.03156	834.99982	-1213.61353	81.43108	827.80426	-1248.43323	128.31755	750.05011	-1254.11401	76.45092	1413.10229	-818.88812	58.33152	1212.95544	-728.92725	79.99226	1092.81201	-716.87488	115.43297	977.57971	-702.67303	195.39348	850.90601	-741.46124	146.00789	843.59406	-696.75903	195.42761	775.16718	-698.36456	146.69983	970.83435	-1080.51721	141.10393	971.02448	-859.88416	-12.80959	995.6413	-1057.15308	-10.03293	998.79761	-887.90649	126.9553	656.61096	-1146.25745	161.77945	497.07709	-1120.47729	82.29948	256.32468	-1120.40613	51.89611	84.97707	-1087.35901	15.65004	70.57542	-1037.08386	187.08954	43.45325	-1104.36292	71.84323	635.63989	-819.84229	65.79182	510.35687	-844.89575	0.84296	249.80457	-856.40161	-21.24274	66.59704	-913.38251	-61.22609	43.37479	-958.72552	132.28221	31.66671	-916.75964	33.3577	1703.68506	-972.60333	NaN	NaN	NaN	NaN	NaN	NaN	NaN	NaN	NaN	NaN	NaN	NaN	NaN	NaN	NaN
152	1.51	146.6228	1671.39124	-1023.36615	134.74203	1654.74036	-892.62695	17.26991	1612.76709	-1039.63647	6.40333	1600.56506	-911.28534	14.47603	1457.83801	-981.22437	-28.42409	1129.98596	-971.2074	122.64637	1378.12964	-979.17572	157.31577	1201.86926	-982.60193	-61.6417	1291.46265	-895.81671	69.10857	1408.67334	-1141.80542	58.39296	1205.85132	-1212.62561	50.40431	1094.12036	-1225.41846	76.67681	946.5282	-1250.95618	142.93555	833.58521	-1213.89355	81.07893	827.11047	-1248.35486	126.65941	748.64923	-1254.06567	82.63682	1413.03308	-818.79749	64.99518	1212.93555	-728.67651	87.10963	1092.90942	-716.59088	123.10087	977.81427	-702.31348	203.71564	851.53888	-740.9989	154.33867	844.08698	-696.12811	203.9487	775.88892	-697.78552	152.53308	970.90594	-1079.75085	146.37958	970.68982	-859.245	-7.12899	995.52533	-1056.71741	-4.59152	998.48383	-887.52423	133.34608	656.95135	-1146.51636	169.29828	497.50912	-1120.72644	98.22253	254.0302	-1120.47717	73.61453	81.82756	-1087.39014	37.23696	66.8875	-1037.24585	210.14333	43.305	-1102.74402	75.99281	635.17267	-819.73218	69.53131	509.87613	-844.81366	2.75902	249.73337	-856.41266	-20.94106	66.69308	-913.4903	-61.04955	43.5849	-958.85181	132.44112	31.54315	-916.72681	39.88732	1703.53613	-972.93634	NaN	NaN	NaN	NaN	NaN	NaN	NaN	NaN	NaN	NaN	NaN	NaN	NaN	NaN	NaN
153	1.52	153.13745	1671.00977	-1023.74969	141.20547	1654.44897	-892.9928	23.59594	1612.50256	-1039.77478	12.72465	1600.53784	-911.43005	20.4886	1457.62891	-981.0769	-22.84013	1129.81104	-970.62628	128.50912	1377.76599	-979.11548	163.02554	1201.51172	-982.30859	-55.70881	1291.49878	-895.18384	74.725	1408.01245	-1141.58496	62.42998	1205.4325	-1212.42358	53.12267	1093.79785	-1224.93457	77.87313	945.90356	-1250.81079	143.00372	832.27594	-1214.08594	80.85671	826.42877	-1248.24854	125.46438	747.56964	-1254.13721	88.90499	1412.93762	-818.7464	71.54571	1212.88696	-728.44452	94.15845	1092.90479	-716.24628	130.67828	978.03424	-702.02319	211.99594	852.2113	-740.58533	162.25026	844.53815	-695.78027	212.61632	776.56207	-697.2702	158.43687	970.92444	-1079.04773	151.75764	970.29083	-858.6098	-1.34488	995.33783	-1056.25	1.12666	997.85211	-887.25586	139.22426	657.133	-1146.62012	176.69408	497.90579	-1121.04321	113.97284	252.06007	-1120.99255	95.36792	79.16251	-1087.50195	58.51087	63.87015	-1037.87695	233.0779	43.07473	-1100.76318	80.32878	634.70398	-819.70007	73.19738	509.36029	-844.77081	4.71664	249.59081	-856.47913	-20.59711	66.79567	-913.63251	-60.86778	43.84385	-958.97131	132.63495	31.43827	-916.68842	46.4037	1703.32507	-973.28302	NaN	NaN	NaN	NaN	NaN	NaN	NaN	NaN	NaN	NaN	NaN	NaN	NaN	NaN	NaN
